<svg width="25" height="25" viewBox="0 0 25 25" fill="#17171B" xmlns="http://www.w3.org/2000/svg">
<path d="M8.83618 14.9984C8.82188 14.5153 8.81968 14.0389 8.81723 13.5261C8.81452 13.0575 8.81205 12.6253 8.80957 12.193C8.81331 11.7108 8.81705 11.2287 8.82137 10.73C9.24589 10.4626 9.66981 10.2118 10.1143 9.94849C10.4925 9.7276 10.8502 9.51926 11.2078 9.31091C11.6395 9.06852 12.0712 8.82612 12.5144 8.57666C12.9408 8.80878 13.3558 9.04797 13.7926 9.30072C14.1969 9.53162 14.5793 9.74896 14.9617 9.9663C15.3761 10.2095 15.7906 10.4526 16.2164 10.7037C16.23 11.1902 16.2322 11.6688 16.2381 12.1844C16.241 12.6515 16.2402 13.0815 16.2393 13.5116C16.2369 13.9925 16.2345 14.4734 16.2299 14.971C15.813 15.2285 15.3982 15.4692 14.9615 15.723C14.5617 15.9616 14.184 16.1872 13.8062 16.4127C13.3876 16.6475 12.9689 16.8823 12.5387 17.1238C12.1111 16.8908 11.6952 16.6511 11.2559 16.3982C10.8591 16.1791 10.4857 15.9731 10.1122 15.7672C9.94763 15.6611 9.78579 15.5505 9.61784 15.4501C9.36355 15.298 9.105 15.1531 8.83618 14.9984Z"/>
<path d="M5.51961 4.49685C5.72004 3.81187 5.92047 3.14245 6.12122 2.47313C6.16688 2.32089 6.21363 2.16898 6.26458 2.00146C7.09554 2.20089 7.91556 2.39768 8.75185 2.5925C9.30339 2.72669 9.83813 2.86498 10.3741 2.99841C10.9102 3.13188 11.4476 3.26049 12.0063 3.39655C11.9257 3.81011 11.8474 4.21314 11.7685 4.61603C11.6108 5.42032 11.4561 6.22521 11.29 7.02773C11.2728 7.11079 11.2012 7.20003 11.1296 7.25089C10.962 7.37002 10.779 7.46759 10.5813 7.58619C10.0123 7.91423 9.46415 8.22997 8.91601 8.54571C8.86846 8.56948 8.81374 8.58483 8.7745 8.61833C8.42865 8.91361 8.08083 8.89757 7.66094 8.73601C6.72327 8.37523 5.76278 8.07374 4.81182 7.74743C4.74366 7.72404 4.67733 7.69532 4.60376 7.66658C4.91124 6.60779 5.21548 5.56012 5.51961 4.49685Z"/>
<path d="M8.77744 23.0971C8.06631 23.2697 7.36873 23.4354 6.67118 23.6012C6.54273 23.6318 6.41436 23.6626 6.26809 23.6976C6.02286 22.883 5.7804 22.0775 5.52535 21.2639C5.49745 21.1651 5.491 21.0718 5.46547 20.984C5.18084 20.0055 4.89326 19.028 4.60107 18.0317C4.67251 18.0041 4.73792 17.9763 4.80496 17.9533C5.8951 17.579 6.98626 17.2077 8.07462 16.8283C8.20184 16.784 8.29745 16.7978 8.40788 16.8657C8.57733 16.9699 8.75646 17.0584 8.95128 17.1675C9.12886 17.2771 9.2843 17.3769 9.44486 17.4676C9.82336 17.6816 10.2043 17.8912 10.5843 18.1025C10.7707 18.2176 10.9604 18.3277 11.1416 18.4504C11.2014 18.491 11.2691 18.5582 11.2823 18.6235C11.5266 19.8367 11.7632 21.0514 12.0076 22.297C10.9304 22.5626 9.86068 22.8264 8.77744 23.0971Z"/>
<path d="M19.5301 21.2006C19.3044 21.973 19.0788 22.7298 18.8531 23.4866C18.8343 23.5497 18.8147 23.6125 18.7885 23.6985C17.9602 23.4973 17.1374 23.2975 16.2981 23.0955C15.2746 22.8462 14.2683 22.5955 13.2595 22.3555C13.0995 22.3174 13.0441 22.2739 13.0806 22.0938C13.3081 20.9736 13.5233 19.8509 13.7377 18.7282C13.7661 18.5793 13.8271 18.4778 13.9695 18.41C14.1311 18.3332 14.28 18.2299 14.4573 18.1275C15.0335 17.7947 15.5868 17.4727 16.1402 17.1507C16.1759 17.1332 16.2177 17.1226 16.2466 17.0974C16.6221 16.7694 17.0047 16.8117 17.451 16.9836C18.3817 17.342 19.3348 17.6421 20.2787 17.9664C20.3286 17.9835 20.3779 18.0024 20.4497 18.0286C20.1424 19.0835 19.8364 20.1343 19.5301 21.2006Z"/>
<path d="M16.2397 2.61137C16.9057 2.44766 17.56 2.29341 18.2141 2.13866C18.401 2.09443 18.5877 2.04874 18.7899 2C19.0329 2.82619 19.2731 3.64254 19.5223 4.47071C19.7515 5.24968 19.9714 6.01695 20.1923 6.78393C20.2751 7.07151 20.3603 7.35842 20.4483 7.65908C20.4002 7.68134 20.3558 7.70681 20.3083 7.72316C19.1882 8.1086 18.0685 8.49538 16.9457 8.87278C16.8665 8.8994 16.7535 8.87733 16.6739 8.84013C16.4996 8.75873 16.3367 8.65305 16.1467 8.54322C15.5748 8.21427 15.0252 7.89937 14.4757 7.58448C14.281 7.4697 14.084 7.35843 13.893 7.23779C13.8422 7.20569 13.7831 7.15014 13.7724 7.09645C13.5274 5.87146 13.2885 4.64524 13.0443 3.39761C14.113 3.1368 15.1704 2.87872 16.2397 2.61137Z"/>
<path d="M18.0505 11.8861C18.0548 11.7463 18.0784 11.6038 18.0594 11.4673C18.0218 11.1983 18.1359 11.0299 18.3367 10.8595C19.1711 10.1517 19.9904 9.42603 20.8154 8.70717C20.8604 8.668 20.9073 8.63107 20.9709 8.57861C21.739 9.37701 22.5037 10.1719 23.2823 10.9689C23.333 11.0246 23.3632 11.0847 23.4077 11.131C23.9019 11.6452 24.3932 12.1624 24.8975 12.6665C25.0452 12.8141 25.0252 12.9028 24.8886 13.0401C24.3857 13.5457 23.8938 14.0622 23.3987 14.5755C23.3623 14.6133 23.3333 14.6583 23.2986 14.7132C23.0154 15.0089 22.731 15.2881 22.4544 15.5747C21.9646 16.0821 21.4795 16.5941 20.9805 17.1167C20.9276 17.0772 20.8792 17.046 20.8363 17.0086C19.9577 16.2434 19.0813 15.4758 18.1997 14.7141C18.099 14.6271 18.0542 14.5397 18.0605 14.4075C18.0695 14.2217 18.0601 14.0349 18.0563 13.8114C18.0528 13.1448 18.0517 12.5155 18.0505 11.8861Z"/>
<path d="M6.99703 13.8134C6.99386 14.0263 6.99863 14.2397 6.9833 14.4518C6.97776 14.5283 6.94417 14.6243 6.88925 14.6727C5.97948 15.4741 5.06431 16.2694 4.14998 17.0656C4.13094 17.0822 4.10747 17.0937 4.07136 17.1171C3.30606 16.315 2.54368 15.516 1.77072 14.7116C1.17798 14.0916 0.595832 13.4769 0 12.8477C0.591711 12.2264 1.17931 11.6094 1.7748 10.9796C2.46162 10.2595 3.14008 9.5519 3.82004 8.84574C3.90261 8.75998 3.99321 8.68197 4.09078 8.59033C4.13521 8.62585 4.18724 8.66442 4.23592 8.70682C5.10102 9.4604 5.96347 10.2171 6.83312 10.9654C6.95264 11.0682 6.99931 11.1725 6.98982 11.3248C6.97904 11.4975 6.9887 11.6715 6.98952 11.8818C6.99205 12.5503 6.99454 13.1818 6.99703 13.8134Z"/>
</svg>
