<svg width="25" height="25" viewBox="0 0 25 25" fill="#17171B" xmlns="http://www.w3.org/2000/svg">
<g clip-path="url(#clip0_749_186)">
<rect y="7" width="7.7298" height="2.47214"/>
<rect y="11.1787" width="7.7298" height="2.47214"/>
<rect x="5.25769" y="13.6509" width="6.65042" height="2.47214" transform="rotate(-90 5.25769 13.6509)"/>
<rect y="15.1831" width="4.00418" height="2.47214" transform="rotate(-90 0 15.1831)"/>
<rect y="17.9336" width="2.43733" height="2.47214" transform="rotate(-90 0 17.9336)"/>
<rect x="8.63501" y="7.03516" width="7.7298" height="2.47214"/>
<rect x="8.63501" y="11.2134" width="7.7298" height="2.47214"/>
<rect x="13.8926" y="13.686" width="6.65042" height="2.47214" transform="rotate(-90 13.8926 13.686)"/>
<rect x="8.63501" y="15.2173" width="4.00418" height="2.47214" transform="rotate(-90 8.63501 15.2173)"/>
<rect x="8.63501" y="17.9683" width="2.43733" height="2.47214" transform="rotate(-90 8.63501 17.9683)"/>
<rect x="17.2703" y="7.03516" width="7.7298" height="2.47214"/>
<rect x="17.2703" y="11.2134" width="7.7298" height="2.47214"/>
<rect x="22.528" y="13.686" width="6.65042" height="2.47214" transform="rotate(-90 22.528 13.686)"/>
<rect x="17.2703" y="15.2173" width="4.00418" height="2.47214" transform="rotate(-90 17.2703 15.2173)"/>
<rect x="17.2703" y="17.9683" width="2.43733" height="2.47214" transform="rotate(-90 17.2703 17.9683)"/>
</g>
<defs>
<clipPath id="clip0_749_186">
<rect width="25" height="25" fill="white"/>
</clipPath>
</defs>
</svg>
